<svg display="none" xmlns="http://www.w3.org/2000/svg">

    <symbol id="twitter" viewBox="0 0 40 40">
        <path d="M26.3438 16.75C26.9688 16.2812 27.5312 15.7188 27.9688 15.0625C27.4062 15.3125 26.75 15.5 26.0938 15.5625C26.7812 15.1562 27.2812 14.5312 27.5312 13.75C26.9062 14.125 26.1875 14.4062 25.4688 14.5625C24.8438 13.9062 24 13.5312 23.0625 13.5312C21.25 13.5312 19.7812 15 19.7812 16.8125C19.7812 17.0625 19.8125 17.3125 19.875 17.5625C17.1562 17.4062 14.7188 16.0938 13.0938 14.125C12.8125 14.5938 12.6562 15.1562 12.6562 15.7812C12.6562 16.9062 13.2188 17.9062 14.125 18.5C13.5938 18.4688 13.0625 18.3438 12.625 18.0938V18.125C12.625 19.7188 13.75 21.0312 15.25 21.3438C15 21.4062 14.6875 21.4688 14.4062 21.4688C14.1875 21.4688 14 21.4375 13.7812 21.4062C14.1875 22.7188 15.4062 23.6562 16.8438 23.6875C15.7188 24.5625 14.3125 25.0938 12.7812 25.0938C12.5 25.0938 12.25 25.0625 12 25.0312C13.4375 25.9688 15.1562 26.5 17.0312 26.5C23.0625 26.5 26.3438 21.5312 26.3438 17.1875C26.3438 17.0312 26.3438 16.9062 26.3438 16.75Z" fill="#FFFFFF"/>
        <circle opacity="0.4" cx="20" cy="20" r="19.5" stroke="#FFFFFF"/>
    </symbol>

    <symbol id="insta" viewBox="0 0 40 40">
        <path d="M20 16.4062C18 16.4062 16.4062 18.0312 16.4062 20C16.4062 22 18 23.5938 20 23.5938C21.9688 23.5938 23.5938 22 23.5938 20C23.5938 18.0312 21.9688 16.4062 20 16.4062ZM20 22.3438C18.7188 22.3438 17.6562 21.3125 17.6562 20C17.6562 18.7188 18.6875 17.6875 20 17.6875C21.2812 17.6875 22.3125 18.7188 22.3125 20C22.3125 21.3125 21.2812 22.3438 20 22.3438ZM24.5625 16.2812C24.5625 15.8125 24.1875 15.4375 23.7188 15.4375C23.25 15.4375 22.875 15.8125 22.875 16.2812C22.875 16.75 23.25 17.125 23.7188 17.125C24.1875 17.125 24.5625 16.75 24.5625 16.2812ZM26.9375 17.125C26.875 16 26.625 15 25.8125 14.1875C25 13.375 24 13.125 22.875 13.0625C21.7188 13 18.25 13 17.0938 13.0625C15.9688 13.125 15 13.375 14.1562 14.1875C13.3438 15 13.0938 16 13.0312 17.125C12.9688 18.2812 12.9688 21.75 13.0312 22.9062C13.0938 24.0312 13.3438 25 14.1562 25.8438C15 26.6562 15.9688 26.9062 17.0938 26.9688C18.25 27.0312 21.7188 27.0312 22.875 26.9688C24 26.9062 25 26.6562 25.8125 25.8438C26.625 25 26.875 24.0312 26.9375 22.9062C27 21.75 27 18.2812 26.9375 17.125ZM25.4375 24.125C25.2188 24.75 24.7188 25.2188 24.125 25.4688C23.1875 25.8438 21 25.75 20 25.75C18.9688 25.75 16.7812 25.8438 15.875 25.4688C15.25 25.2188 14.7812 24.75 14.5312 24.125C14.1562 23.2188 14.25 21.0312 14.25 20C14.25 19 14.1562 16.8125 14.5312 15.875C14.7812 15.2812 15.25 14.8125 15.875 14.5625C16.7812 14.1875 18.9688 14.2812 20 14.2812C21 14.2812 23.1875 14.1875 24.125 14.5625C24.7188 14.7812 25.1875 15.2812 25.4375 15.875C25.8125 16.8125 25.7188 19 25.7188 20C25.7188 21.0312 25.8125 23.2188 25.4375 24.125Z" stroke="#FFFFFF"/>
        <circle opacity="0.4" cx="20" cy="20" r="19.5" stroke="#FFFFFF"/>
    </symbol>

    <symbol id="facebook" viewBox="0 0 40 40">
        <path d="M23.7188 21L24.1562 18.125H21.375V16.25C21.375 15.4375 21.75 14.6875 23 14.6875H24.2812V12.2188C24.2812 12.2188 23.125 12 22.0312 12C19.75 12 18.25 13.4062 18.25 15.9062V18.125H15.6875V21H18.25V28H21.375V21H23.7188Z" fill="#FFFFFF"/>
        <circle opacity="0.4" cx="20" cy="20" r="19.5" stroke="#FFFFFF"/>
    </symbol>

    <symbol id="ellipse" viewBox="0 0 9 9">
        <circle cx="4.5" cy="4.5" r="4"/>
    </symbol>

    <symbol id="arrow" viewBox="0 0 40 40">
        <path d="M23.9983 19.3036C23.9983 19.2366 23.9648 19.1613 23.9146 19.111L23.4961 18.6925C23.4459 18.6423 23.3705 18.6088 23.3036 18.6088C23.2366 18.6088 23.1613 18.6423 23.111 18.6925L19.8214 21.9821L16.5318 18.6925C16.4816 18.6423 16.4063 18.6088 16.3393 18.6088C16.264 18.6088 16.197 18.6423 16.1468 18.6925L15.7282 19.111C15.678 19.1613 15.6445 19.2366 15.6445 19.3036C15.6445 19.3705 15.678 19.4459 15.7282 19.4961L19.6289 23.3968C19.6791 23.447 19.7545 23.4805 19.8214 23.4805C19.8884 23.4805 19.9637 23.447 20.014 23.3968L23.9146 19.4961C23.9648 19.4459 23.9983 19.3705 23.9983 19.3036Z" fill="white"/>
        <circle opacity="0.7" cx="20" cy="20" r="19.5" stroke="white"/>
    </symbol>

    <symbol id="menu" viewBox="0 0 24 24">
        <g>
            <g>
                <g>
                    <path d="M12,7c-1.7,0-3-1.3-3-3s1.3-3,3-3s3,1.3,3,3S13.7,7,12,7z M12,3c-0.6,0-1,0.4-1,1s0.4,1,1,1s1-0.4,1-1S12.6,3,12,3z"/>
                </g>
            </g>
            <g>
                <g>
                    <path d="M12,23c-1.7,0-3-1.3-3-3s1.3-3,3-3s3,1.3,3,3S13.7,23,12,23z M12,19c-0.6,0-1,0.4-1,1s0.4,1,1,1s1-0.4,1-1S12.6,19,12,19
				z"/>
                </g>
            </g>
            <g>
                <g>
                    <path d="M12,15c-1.7,0-3-1.3-3-3s1.3-3,3-3s3,1.3,3,3S13.7,15,12,15z M12,11c-0.6,0-1,0.4-1,1s0.4,1,1,1s1-0.4,1-1S12.6,11,12,11
				z"/>
                </g>
            </g>
        </g>
    </symbol>

    <symbol id="location" viewBox="0 0 9 14">
        <path d="M6.42857 4.5C6.42857 5.68025 5.46596 6.64286 4.28571 6.64286C3.10547 6.64286 2.14286 5.68025 2.14286 4.5C2.14286 3.31975 3.10547 2.35714 4.28571 2.35714C5.46596 2.35714 6.42857 3.31975 6.42857 4.5ZM8.57143 4.5C8.57143 2.13114 6.65458 0.214285 4.28571 0.214285C1.91685 0.214285 0 2.13114 0 4.5C0 5.0106 0.0585938 5.53795 0.276228 5.99833L3.33147 12.4771C3.49888 12.8454 3.88393 13.0714 4.28571 13.0714C4.6875 13.0714 5.07254 12.8454 5.24833 12.4771L8.2952 5.99833C8.51284 5.53795 8.57143 5.0106 8.57143 4.5Z"/>
    </symbol>

    <symbol id="line" viewBox="0 0 100 1">
        <line y1="0.5" x2="100" y2="0.5"/>
    </symbol>

    <symbol id="phone" viewBox="0 0 512 512" >
        <path d="M497.39 361.8l-112-48a24 24 0 0 0-28 6.9l-49.6 60.6A370.66 370.66 0 0 1 130.6 204.11l60.6-49.6a23.94 23.94 0 0 0 6.9-28l-48-112A24.16 24.16 0 0 0 122.6.61l-104 24A24 24 0 0 0 0 48c0 256.5 207.9 464 464 464a24 24 0 0 0 23.4-18.6l24-104a24.29 24.29 0 0 0-14.01-27.6z"/>
    </symbol>

    <symbol id="inbox" viewBox="0 0 576 512">
        <path d="M567.938 243.908L462.25 85.374A48.003 48.003 0 0 0 422.311 64H153.689a48 48 0 0 0-39.938 21.374L8.062 243.908A47.994 47.994 0 0 0 0 270.533V400c0 26.51 21.49 48 48 48h480c26.51 0 48-21.49 48-48V270.533a47.994 47.994 0 0 0-8.062-26.625zM162.252 128h251.497l85.333 128H376l-32 64H232l-32-64H76.918l85.334-128z"/>
    </symbol>

    <symbol id="clock" viewBox="0 0 512 512">
        <path d="M256 8C119 8 8 119 8 256s111 248 248 248 248-111 248-248S393 8 256 8zm0 448c-110.5 0-200-89.5-200-200S145.5 56 256 56s200 89.5 200 200-89.5 200-200 200zm61.8-104.4l-84.9-61.7c-3.1-2.3-4.9-5.9-4.9-9.7V116c0-6.6 5.4-12 12-12h32c6.6 0 12 5.4 12 12v141.7l66.8 48.6c5.4 3.9 6.5 11.4 2.6 16.8L334.6 349c-3.9 5.3-11.4 6.5-16.8 2.6z"/>
    </symbol>

    <symbol id="cross" viewBox="0 0 352 512">
        <path d="M242.72 256l100.07-100.07c12.28-12.28 12.28-32.19 0-44.48l-22.24-22.24c-12.28-12.28-32.19-12.28-44.48 0L176 189.28 75.93 89.21c-12.28-12.28-32.19-12.28-44.48 0L9.21 111.45c-12.28 12.28-12.28 32.19 0 44.48L109.28 256 9.21 356.07c-12.28 12.28-12.28 32.19 0 44.48l22.24 22.24c12.28 12.28 32.2 12.28 44.48 0L176 322.72l100.07 100.07c12.28 12.28 32.2 12.28 44.48 0l22.24-22.24c12.28-12.28 12.28-32.19 0-44.48L242.72 256z"/>
    </symbol>

</svg>